<svg width="32" height="32" viewBox="0 0 32 32" fill="none" xmlns="http://www.w3.org/2000/svg">
<mask id="mask0_3_239" style="mask-type:alpha" maskUnits="userSpaceOnUse" x="0" y="0" width="32" height="32">
<rect width="32" height="32" fill="#D9D9D9"/>
</mask>
<g mask="url(#mask0_3_239)">
<path d="M11.9998 21.3334C12.7332 21.3334 13.3609 21.0723 13.8832 20.5501C14.4054 20.0278 14.6665 19.4001 14.6665 18.6667C14.6665 17.9334 14.4054 17.3056 13.8832 16.7834C13.3609 16.2612 12.7332 16.0001 11.9998 16.0001C11.2665 16.0001 10.6387 16.2612 10.1165 16.7834C9.59428 17.3056 9.33317 17.9334 9.33317 18.6667C9.33317 19.4001 9.59428 20.0278 10.1165 20.5501C10.6387 21.0723 11.2665 21.3334 11.9998 21.3334ZM19.9998 21.3334C20.7332 21.3334 21.3609 21.0723 21.8832 20.5501C22.4054 20.0278 22.6665 19.4001 22.6665 18.6667C22.6665 17.9334 22.4054 17.3056 21.8832 16.7834C21.3609 16.2612 20.7332 16.0001 19.9998 16.0001C19.2665 16.0001 18.6387 16.2612 18.1165 16.7834C17.5943 17.3056 17.3332 17.9334 17.3332 18.6667C17.3332 19.4001 17.5943 20.0278 18.1165 20.5501C18.6387 21.0723 19.2665 21.3334 19.9998 21.3334ZM15.9998 14.6667C16.7332 14.6667 17.3609 14.4056 17.8832 13.8834C18.4054 13.3612 18.6665 12.7334 18.6665 12.0001C18.6665 11.2667 18.4054 10.6389 17.8832 10.1167C17.3609 9.5945 16.7332 9.33338 15.9998 9.33338C15.2665 9.33338 14.6387 9.5945 14.1165 10.1167C13.5943 10.6389 13.3332 11.2667 13.3332 12.0001C13.3332 12.7334 13.5943 13.3612 14.1165 13.8834C14.6387 14.4056 15.2665 14.6667 15.9998 14.6667ZM15.9998 29.3334C14.1554 29.3334 12.4221 28.9834 10.7998 28.2834C9.17762 27.5834 7.7665 26.6334 6.5665 25.4334C5.3665 24.2334 4.4165 22.8223 3.7165 21.2001C3.0165 19.5778 2.6665 17.8445 2.6665 16.0001C2.6665 14.1556 3.0165 12.4223 3.7165 10.8001C4.4165 9.17783 5.3665 7.76672 6.5665 6.56672C7.7665 5.36672 9.17762 4.41672 10.7998 3.71672C12.4221 3.01672 14.1554 2.66672 15.9998 2.66672C17.8443 2.66672 19.5776 3.01672 21.1998 3.71672C22.8221 4.41672 24.2332 5.36672 25.4332 6.56672C26.6332 7.76672 27.5832 9.17783 28.2832 10.8001C28.9832 12.4223 29.3332 14.1556 29.3332 16.0001C29.3332 17.8445 28.9832 19.5778 28.2832 21.2001C27.5832 22.8223 26.6332 24.2334 25.4332 25.4334C24.2332 26.6334 22.8221 27.5834 21.1998 28.2834C19.5776 28.9834 17.8443 29.3334 15.9998 29.3334ZM15.9998 26.6667C18.9776 26.6667 21.4998 25.6334 23.5665 23.5667C25.6332 21.5001 26.6665 18.9778 26.6665 16.0001C26.6665 13.0223 25.6332 10.5001 23.5665 8.43338C21.4998 6.36672 18.9776 5.33338 15.9998 5.33338C13.0221 5.33338 10.4998 6.36672 8.43317 8.43338C6.3665 10.5001 5.33317 13.0223 5.33317 16.0001C5.33317 18.9778 6.3665 21.5001 8.43317 23.5667C10.4998 25.6334 13.0221 26.6667 15.9998 26.6667Z" fill="#252624"/>
</g>
</svg>
