<svg width="23" height="28" viewBox="0 0 23 28" fill="none" xmlns="http://www.w3.org/2000/svg">
<path d="M0.833496 23.3333V20.6667H3.50016V11.3333C3.50016 9.48888 4.05572 7.84999 5.16683 6.41666C6.27794 4.98332 7.72238 4.04443 9.50016 3.59999V2.66666C9.50016 2.1111 9.69461 1.63888 10.0835 1.24999C10.4724 0.861101 10.9446 0.666656 11.5002 0.666656C12.0557 0.666656 12.5279 0.861101 12.9168 1.24999C13.3057 1.63888 13.5002 2.1111 13.5002 2.66666V3.59999C15.2779 4.04443 16.7224 4.98332 17.8335 6.41666C18.9446 7.84999 19.5002 9.48888 19.5002 11.3333V20.6667H22.1668V23.3333H0.833496ZM11.5002 27.3333C10.7668 27.3333 10.1391 27.0722 9.61683 26.55C9.09461 26.0278 8.8335 25.4 8.8335 24.6667H14.1668C14.1668 25.4 13.9057 26.0278 13.3835 26.55C12.8613 27.0722 12.2335 27.3333 11.5002 27.3333ZM6.16683 20.6667H16.8335V11.3333C16.8335 9.86666 16.3113 8.6111 15.2668 7.56666C14.2224 6.52221 12.9668 5.99999 11.5002 5.99999C10.0335 5.99999 8.77794 6.52221 7.7335 7.56666C6.68905 8.6111 6.16683 9.86666 6.16683 11.3333V20.6667Z" fill="#252624"/>
</svg>
