<svg width="32" height="32" viewBox="0 0 32 32" fill="none" xmlns="http://www.w3.org/2000/svg">
<mask id="mask0_3_223" style="mask-type:alpha" maskUnits="userSpaceOnUse" x="0" y="0" width="32" height="32">
<rect width="32" height="32" fill="#D9D9D9"/>
</mask>
<g mask="url(#mask0_3_223)">
<path d="M23.6668 27C22.2668 27 21.0835 26.5167 20.1168 25.55C19.1502 24.5833 18.6668 23.4 18.6668 22C18.6668 20.6 19.1502 19.4167 20.1168 18.45C21.0835 17.4833 22.2668 17 23.6668 17C25.0668 17 26.2502 17.4833 27.2168 18.45C28.1835 19.4167 28.6668 20.6 28.6668 22C28.6668 23.4 28.1835 24.5833 27.2168 25.55C26.2502 26.5167 25.0668 27 23.6668 27ZM23.6668 24.3333C24.3113 24.3333 24.8613 24.1056 25.3168 23.65C25.7724 23.1944 26.0002 22.6444 26.0002 22C26.0002 21.3556 25.7724 20.8056 25.3168 20.35C24.8613 19.8944 24.3113 19.6667 23.6668 19.6667C23.0224 19.6667 22.4724 19.8944 22.0168 20.35C21.5613 20.8056 21.3335 21.3556 21.3335 22C21.3335 22.6444 21.5613 23.1944 22.0168 23.65C22.4724 24.1056 23.0224 24.3333 23.6668 24.3333ZM5.3335 23.3333V20.6667H16.0002V23.3333H5.3335ZM8.3335 15C6.9335 15 5.75016 14.5167 4.7835 13.55C3.81683 12.5833 3.3335 11.4 3.3335 10C3.3335 8.6 3.81683 7.41667 4.7835 6.45C5.75016 5.48333 6.9335 5 8.3335 5C9.7335 5 10.9168 5.48333 11.8835 6.45C12.8502 7.41667 13.3335 8.6 13.3335 10C13.3335 11.4 12.8502 12.5833 11.8835 13.55C10.9168 14.5167 9.7335 15 8.3335 15ZM8.3335 12.3333C8.97794 12.3333 9.52794 12.1056 9.9835 11.65C10.4391 11.1944 10.6668 10.6444 10.6668 10C10.6668 9.35556 10.4391 8.80556 9.9835 8.35C9.52794 7.89444 8.97794 7.66667 8.3335 7.66667C7.68905 7.66667 7.13905 7.89444 6.6835 8.35C6.22794 8.80556 6.00016 9.35556 6.00016 10C6.00016 10.6444 6.22794 11.1944 6.6835 11.65C7.13905 12.1056 7.68905 12.3333 8.3335 12.3333ZM16.0002 11.3333V8.66667H26.6668V11.3333H16.0002Z" fill="#252624"/>
</g>
</svg>
